<?xml version="1.0" encoding="utf-8"?>
<!-- Generator: Adobe Illustrator 22.1.0, SVG Export Plug-In . SVG Version: 6.00 Build 0)  -->
<svg version="1.1" id="Layer_1" xmlns="http://www.w3.org/2000/svg" xmlns:xlink="http://www.w3.org/1999/xlink" x="0px" y="0px"
	 viewBox="0 0 24 24" style="enable-background:new 0 0 24 24;" xml:space="preserve">
<style type="text/css">
	.st0{fill:#414141;}
	.st1{fill:#8CC540;}
	.st2{fill:#DA4426;}
	.st3{fill:#00B2EF;}
	.st4{fill:#F7931E;}
	.st5{fill:#FFFFFF;}
	.st6{fill:#0071BC;}
</style>
<g>
	<g>
		<path class="st0" d="M14.9,18c-0.1,0.1-0.2,0.1-0.3,0.2c-0.8,0.3-1.7,0.5-2.6,0.5c-0.9,0-1.8-0.2-2.6-0.5
			c-0.8-0.3-1.5-0.8-2.1-1.4c-0.6-0.6-1.1-1.3-1.4-2.1c-0.3-0.8-0.5-1.7-0.5-2.6c0-0.9,0.2-1.8,0.5-2.6c0.3-0.8,0.8-1.5,1.4-2.1
			c0.6-0.6,1.3-1.1,2.1-1.4c0.8-0.3,1.7-0.5,2.6-0.5c0.9,0,1.8,0.2,2.6,0.5c0.1,0,0.2,0.1,0.3,0.2l3.3-1.9c-0.7-0.6-1.5-1-2.3-1.4
			C14.6,2.3,13.3,2,12,2c-1.3,0-2.6,0.3-3.8,0.8C7,3.3,5.9,4,4.9,4.9C4,5.9,3.3,7,2.8,8.2C2.3,9.4,2,10.7,2,12
			c0,1.3,0.3,2.6,0.8,3.8C3.3,17,4,18.1,4.9,19.1c0.9,0.9,2,1.6,3.2,2.2C9.4,21.7,10.6,22,12,22c1.3,0,2.6-0.3,3.8-0.8
			c0.8-0.4,1.6-0.8,2.3-1.4L14.9,18z"/>
	</g>
	<path class="st1" d="M14.8,10V14l8.4,5c0.3,0.2,0.8,0,0.8-0.4V5.5c0-0.4-0.4-0.6-0.8-0.4L14.8,10z"/>
</g>
</svg>
