<?xml version="1.0" encoding="utf-8"?>
<!-- Generator: Adobe Illustrator 22.1.0, SVG Export Plug-In . SVG Version: 6.00 Build 0)  -->
<svg version="1.1" id="Layer_1" xmlns="http://www.w3.org/2000/svg" xmlns:xlink="http://www.w3.org/1999/xlink" x="0px" y="0px"
	 viewBox="0 0 24 24" style="enable-background:new 0 0 24 24;" xml:space="preserve">
<style type="text/css">
	.st0{fill:#414141;}
	.st1{fill:#8CC540;}
	.st2{fill:#DA4426;}
	.st3{fill:#00B2EF;}
	.st4{fill:#F7931E;}
	.st5{fill:#FFFFFF;}
	.st6{fill:#0071BC;}
</style>
<g>
	<path class="st0" d="M12,18.7c-3.6,0-6.6-3-6.6-6.6H2.1c0,5.5,4.5,10,10,10V18.7z"/>
	<path class="st2" d="M20.2,3.8h-0.9V2.9c0-0.5-0.4-0.9-0.9-0.9c-0.5,0-0.9,0.4-0.9,0.9v0.9H6.5V2.9C6.5,2.4,6.1,2,5.6,2
		S4.7,2.4,4.7,2.9v0.9H3.8C2.8,3.8,2,4.6,2,5.6v3h18.2v10.6c0,0.5-0.4,0.9-0.9,0.9h-3.9V22h4.8c1,0,1.8-0.8,1.8-1.8V5.6
		C22,4.6,21.2,3.8,20.2,3.8z"/>
	<rect x="14" y="12" transform="matrix(-1.836970e-16 1 -1 -1.836970e-16 29.3618 -1.9993)" class="st2" width="3.3" height="3.3"/>
</g>
</svg>
