<?xml version="1.0" encoding="utf-8"?>
<!-- Generator: Adobe Illustrator 22.1.0, SVG Export Plug-In . SVG Version: 6.00 Build 0)  -->
<svg version="1.1" id="Layer_1" xmlns="http://www.w3.org/2000/svg" xmlns:xlink="http://www.w3.org/1999/xlink" x="0px" y="0px"
	 viewBox="0 0 24 24" style="enable-background:new 0 0 24 24;" xml:space="preserve">
<style type="text/css">
	.st0{fill:#414141;}
	.st1{fill:#FFFFFF;}
	.st2{fill:#8CC540;}
	.st3{fill:#DA4426;}
	.st4{fill:#F7931E;}
	.st5{fill:#00B2EF;}
	.st6{fill:#0072BC;}
</style>
<rect x="13.7" y="12" class="st3" width="3.3" height="3.3"/>
<g>
	<path class="st3" d="M20.2,3.8h-0.9V2.9c0-0.5-0.4-0.9-0.9-0.9s-0.9,0.4-0.9,0.9v0.9h-11V2.9C6.5,2.4,6.1,2,5.6,2S4.7,2.4,4.7,2.9
		v0.9H3.8C2.8,3.8,2,4.6,2,5.6v3.1h18.2v10.5c0,0.5-0.4,0.9-0.9,0.9h-4V22h4.9c1,0,1.8-0.8,1.8-1.8V5.6C22,4.6,21.2,3.8,20.2,3.8z"
		/>
	<path class="st0" d="M5.3,12H2c0,5.5,4.5,10,10,10v-3.4C8.3,18.6,5.3,15.7,5.3,12z"/>
</g>
</svg>
