<?xml version="1.0" encoding="utf-8"?>
<!-- Generator: Adobe Illustrator 22.1.0, SVG Export Plug-In . SVG Version: 6.00 Build 0)  -->
<svg version="1.1" id="Layer_1" xmlns="http://www.w3.org/2000/svg" xmlns:xlink="http://www.w3.org/1999/xlink" x="0px" y="0px"
	 viewBox="0 0 24 24" style="enable-background:new 0 0 24 24;" xml:space="preserve">
<style type="text/css">
	.st0{fill:#414141;}
	.st1{fill:#FFFFFF;}
	.st2{fill:#8CC540;}
	.st3{fill:#DA4426;}
	.st4{fill:#F7931E;}
	.st5{fill:#00B2EF;}
	.st6{fill:#0072BC;}
</style>
<g>
	<path class="st0" d="M12,2C9,2,6.4,3.3,4.5,5.4l7.5,0v0c0,0,0,0,0,0c3.7,0,6.7,3,6.7,6.6c0,3.7-3,6.6-6.7,6.6c0,0,0,0,0,0l-7.5,0
		C6.4,20.7,9,22,12,22c5.5,0,10-4.5,10-10S17.5,2,12,2z"/>
	<polygon class="st6" points="15.8,12 10.8,7 10.8,10.3 2,10.3 2,13.7 10.8,13.7 10.8,17 	"/>
</g>
</svg>
