<?xml version="1.0" encoding="utf-8"?>
<!-- Generator: Adobe Illustrator 22.1.0, SVG Export Plug-In . SVG Version: 6.00 Build 0)  -->
<svg version="1.1" id="Layer_1" xmlns="http://www.w3.org/2000/svg" xmlns:xlink="http://www.w3.org/1999/xlink" x="0px" y="0px"
	 viewBox="0 0 24 24" style="enable-background:new 0 0 24 24;" xml:space="preserve">
<style type="text/css">
	.st0{fill:#414141;}
	.st1{fill:#8CC540;}
	.st2{fill:#DA4426;}
	.st3{fill:#00B2EF;}
	.st4{fill:#F7931E;}
	.st5{fill:#FFFFFF;}
	.st6{fill:#0071BC;}
</style>
<g>
	<g>
		<path class="st3" d="M14.6,14.8c-1.5,1.2-3.6,1.2-5.2,0L3.2,9.6C2.7,9.2,2,9.5,2,10.2v10.5c0,0.7,0.6,1.2,1.2,1.2h17.5
			c0.7,0,1.2-0.6,1.2-1.2V10.2c0-0.6-0.7-1-1.2-0.6L14.6,14.8z"/>
	</g>
	<g>
		<path class="st0" d="M12,1.9c-3.7,0-6.9,2-8.7,5L6,9.1C7,6.9,9.3,5.3,12,5.3c2.7,0,5,1.6,6,3.9l2.7-2.2C19,3.9,15.7,1.9,12,1.9z"
			/>
	</g>
	<path class="st3" d="M12,8.6c-1.7,0-3,1.2-3.2,2.8l2,1.7c0.7,0.6,1.8,0.6,2.5,0l2-1.7C15,9.9,13.7,8.6,12,8.6z"/>
</g>
</svg>
